<?xml version="1.0" encoding="utf-8"?>
<!-- Generator: Adobe Illustrator 21.1.0, SVG Export Plug-In . SVG Version: 6.00 Build 0)  -->
<svg version="1.1" id="Capa_1" xmlns="http://www.w3.org/2000/svg" xmlns:xlink="http://www.w3.org/1999/xlink" x="0px" y="0px"
	 viewBox="0 0 453.5 453.5" style="enable-background:new 0 0 453.5 453.5;" xml:space="preserve">
<style type="text/css">
	.st0{fill:#FFB246;}
</style>
<g>
	<path class="st0" d="M390.5,159.8l-24-31.4l5.1-39.2c0.6-4.5-1.9-8.8-6.1-10.5L329,63.5L313.9,27c-1.7-4.2-6-6.7-10.5-6.1
		l-39.2,5.1l-31.4-24c-3.6-2.7-8.6-2.7-12.2,0l-31.4,24l-39.2-5.1c-4.5-0.6-8.8,1.9-10.5,6.1l-15.1,36.5L87.9,78.7
		c-4.2,1.7-6.7,6.1-6.1,10.5l5.1,39.2l-24,31.4c-2.7,3.6-2.7,8.6,0,12.2l24,31.4l-5.1,39.2c-0.6,4.5,1.9,8.8,6.1,10.5l36.5,15.1
		l15.1,36.5c1.3,3.2,4.2,5.5,7.6,6v132.8c0,3.6,2,7,5.2,8.8c3.2,1.8,7.1,1.6,10.2-0.3l64.3-40.8l64.3,40.8c1.6,1,3.5,1.6,5.4,1.6
		c1.7,0,3.3-0.4,4.8-1.2c3.2-1.8,5.2-5.1,5.2-8.8V310.7c3.3-0.6,6.2-2.8,7.6-6l15.1-36.5l36.5-15.1c4.2-1.7,6.7-6.1,6.1-10.5
		l-5.1-39.2l24-31.4C393.3,168.3,393.3,163.3,390.5,159.8z M232.1,390.9c-3.3-2.1-7.4-2.1-10.7,0l-54.3,34.4V308.5l22.2-2.9l31.4,24
		c1.8,1.4,3.9,2.1,6.1,2.1s4.3-0.7,6.1-2.1l31.4-24l22.2,2.9v116.8L232.1,390.9z M348.1,194.4c-1.6,2.1-2.3,4.8-2,7.4l4.7,35.7
		l-33.3,13.8c-2.5,1-4.4,3-5.4,5.4l-13.8,33.3l-35.7-4.7c-2.6-0.3-5.3,0.4-7.4,2l-28.6,21.9l-28.6-21.9c-1.8-1.3-3.9-2.1-6.1-2.1
		c-0.4,0-0.9,0-1.3,0.1l-35.7,4.7l-13.8-33.3c-1-2.5-3-4.4-5.4-5.4l-33.3-13.8l4.7-35.7c0.3-2.6-0.4-5.3-2-7.4l-21.9-28.6l21.9-28.6
		c1.6-2.1,2.3-4.8,2-7.4l-4.7-35.7l33.3-13.8c2.5-1,4.4-3,5.4-5.4l13.8-33.3l35.7,4.7c2.6,0.3,5.3-0.4,7.4-2l28.6-21.9l28.6,21.9
		c2.1,1.6,4.8,2.3,7.4,2l35.7-4.7L312.1,75c1,2.5,3,4.4,5.4,5.4l33.3,13.8l-4.7,35.7c-0.3,2.6,0.4,5.3,2,7.4l21.9,28.6L348.1,194.4z
		"/>
	<path class="st0" d="M165.7,101.3c2.2,0,4.5-0.7,6.3-2.3c15.4-12.6,34.8-19.6,54.7-19.6c5.5,0,10-4.5,10-10s-4.5-10-10-10
		c-24.5,0-48.5,8.6-67.4,24.1c-4.3,3.5-4.9,9.8-1.4,14.1C159.9,100.1,162.8,101.3,165.7,101.3z"/>
	<path class="st0" d="M262.4,65.6c-5.2-1.8-10.9,0.9-12.8,6.1c-1.9,5.2,0.9,10.9,6.1,12.8c34.3,12.2,57.4,44.9,57.4,81.4
		c0,47.6-38.7,86.4-86.4,86.4s-86.4-38.7-86.4-86.4c0-16.9,4.9-33.3,14.2-47.4c3-4.6,1.8-10.8-2.9-13.9c-4.6-3-10.8-1.8-13.9,2.9
		c-11.4,17.4-17.5,37.6-17.5,58.4c0,58.6,47.7,106.4,106.4,106.4s106.4-47.7,106.4-106.4C333.1,120.9,304.7,80.7,262.4,65.6z"/>
</g>
</svg>
