<?xml version="1.0" encoding="utf-8"?>
<!-- Generator: Adobe Illustrator 21.1.0, SVG Export Plug-In . SVG Version: 6.00 Build 0)  -->
<svg version="1.1" id="Capa_1" xmlns="http://www.w3.org/2000/svg" xmlns:xlink="http://www.w3.org/1999/xlink" x="0px" y="0px"
	 viewBox="0 0 442 442" style="enable-background:new 0 0 442 442;" xml:space="preserve">
<style type="text/css">
	.st0{fill:#FFB246;}
</style>
<g>
	<path class="st0" d="M365.9,42.4H276C269.6,18,247.4,0,221,0s-48.6,18-55,42.4H76.1c-11.8,0-21.4,9.6-21.4,21.4v356.8
		c0,11.8,9.6,21.4,21.4,21.4h289.8c11.8,0,21.4-9.6,21.4-21.4V63.8C387.3,52,377.7,42.4,365.9,42.4z M221,20
		c20.3,0,36.8,16.5,36.8,36.8v25.4c0,5.5,4.5,10,10,10c12.2,0,22.7,7.7,26.8,18.6H147.4c4.1-10.8,14.5-18.6,26.8-18.6
		c5.5,0,10-4.5,10-10V56.8C184.2,36.5,200.7,20,221,20z M135.6,130.9h170.8c5.5,0,10-4.5,10-10c0-7.2-1.6-14.1-4.5-20.3h20.3v286.4
		H109.8V100.5H130c-2.9,6.2-4.5,13.1-4.5,20.3C125.6,126.4,130.1,130.9,135.6,130.9z M367.3,420.6c0,0.8-0.6,1.4-1.4,1.4H76.1
		c-0.8,0-1.4-0.6-1.4-1.4V63.8c0-0.8,0.6-1.4,1.4-1.4h88.1v10.9c-6.2,1.3-12,3.8-17.1,7.2H99.8c-5.5,0-10,4.5-10,10v306.4
		c0,5.5,4.5,10,10,10h242.5c5.5,0,10-4.5,10-10V90.5c0-5.5-4.5-10-10-10h-47.3c-5.1-3.4-10.9-5.9-17.1-7.2V62.4h88.1
		c0.8,0,1.4,0.6,1.4,1.4L367.3,420.6L367.3,420.6z"/>
	<path class="st0" d="M221,72.3c8.5,0,15.5-7,15.5-15.5s-7-15.5-15.5-15.5s-15.5,7-15.5,15.5S212.5,72.3,221,72.3z M221,52.3
		c2.5,0,4.5,2,4.5,4.5s-2,4.5-4.5,4.5s-4.5-2-4.5-4.5S218.5,52.3,221,52.3z"/>
</g>
</svg>
